<?xml version="1.0" encoding="UTF-8" standalone="no"?>
<svg
   xmlns:dc="http://purl.org/dc/elements/1.1/"
   xmlns:cc="http://creativecommons.org/ns#"
   xmlns:rdf="http://www.w3.org/1999/02/22-rdf-syntax-ns#"
   xmlns:svg="http://www.w3.org/2000/svg"
   xmlns="http://www.w3.org/2000/svg"
   xmlns:sodipodi="http://sodipodi.sourceforge.net/DTD/sodipodi-0.dtd"
   xmlns:inkscape="http://www.inkscape.org/namespaces/inkscape"
   height="512pt"
   viewBox="0 -26 512.00119 512"
   width="512pt"
   version="1.1"
   id="svg10"
   sodipodi:docname="hat.svg"
   inkscape:export-filename="C:\Apps\Github\TTISD\TTISD-Project\Design\Pionnen\hat.png"
   inkscape:export-xdpi="140.62"
   inkscape:export-ydpi="140.62"
   inkscape:version="0.92.3 (2405546, 2018-03-11)">
  <metadata
     id="metadata16">
    <rdf:RDF>
      <cc:Work
         rdf:about="">
        <dc:format>image/svg+xml</dc:format>
        <dc:type
           rdf:resource="http://purl.org/dc/dcmitype/StillImage" />
      </cc:Work>
    </rdf:RDF>
  </metadata>
  <defs
     id="defs14" />
  <sodipodi:namedview
     pagecolor="#ffffff"
     bordercolor="#666666"
     borderopacity="1"
     objecttolerance="10"
     gridtolerance="10"
     guidetolerance="10"
     inkscape:pageopacity="0"
     inkscape:pageshadow="2"
     inkscape:window-width="1920"
     inkscape:window-height="1001"
     id="namedview12"
     showgrid="false"
     inkscape:zoom="0.34570313"
     inkscape:cx="341.33333"
     inkscape:cy="341.33333"
     inkscape:window-x="-9"
     inkscape:window-y="-9"
     inkscape:window-maximized="1"
     inkscape:current-layer="svg10" />
  <path
     d="m508.171875 394.214844c-3.953125-7.105469-10.433594-12.246094-18.253906-14.480469-7.816407-2.230469-16.035157-1.28125-23.144531 2.667969l-.015626.011718c-11.460937 6.398438-19.824218 10.171876-27.957031 12.609376-6.21875 1.863281-12.847656 3.03125-20.3125 3.589843l9.191407-380.046875c.125-5.070312-3.570313-9.429687-8.589844-10.144531-49.125-6.964844-137.609375-10.023437-220.195313-7.601563-5.519531.164063-9.863281 4.769532-9.703125 10.292969.164063 5.519531 4.777344 9.867188 10.289063 9.703125 76.804687-2.253906 158.539062.253906 207.988281 6.253906l-6.878906 284.441407h-289.175782l-6.878906-284.441407c4.90625-.59375 10.167969-1.160156 15.734375-1.695312 5.5-.523438 9.53125-5.40625 9.003907-10.90625-.523438-5.496094-5.398438-9.523438-10.90625-9-9.363282.894531-17.929688 1.886719-25.453126 2.957031-5.023437.710938-8.714843 5.070313-8.59375 10.144531l9.191407 380.042969c-7.464844-.558593-14.09375-1.722656-20.3125-3.585937-8.132813-2.4375-16.496094-6.210938-27.972657-12.621094-7.105468-3.949219-15.324218-4.898438-23.144531-2.667969-7.816406 2.230469-14.300781 7.371094-18.25 14.476563-8.15625 14.671875-2.859375 33.238281 11.792969 41.386718 15.714844 8.777344 27.71875 14.109376 40.136719 17.832032 14.988281 4.496094 30.417969 6.585937 48.554687 6.585937h303.367188c18.140625 0 33.570312-2.089843 48.554687-6.585937 12.417969-3.71875 24.417969-9.054688 40.121094-17.820313 14.667969-8.160156 19.96875-26.730469 11.8125-41.398437zm-108.066406-62.707032-1.632813 67.5h-284.941406l-1.632812-67.5zm86.519531 86.628907c-14.378906 8.03125-25.183594 12.855469-36.128906 16.136719-13.070313 3.921874-26.671875 5.746093-42.8125 5.746093h-303.363282c-16.136718 0-29.742187-1.824219-42.8125-5.746093-10.949218-3.28125-21.753906-8.105469-36.144531-16.144532-5.03125-2.796875-6.847656-9.164062-4.050781-14.195312 1.355469-2.4375 3.578125-4.199219 6.257812-4.964844.953126-.269531 1.921876-.40625 2.882813-.40625 1.75 0 3.476563.445312 5.039063 1.3125 12.800781 7.148438 22.363281 11.429688 31.964843 14.308594 10.816407 3.242187 22.351563 4.773437 36.242188 4.820312h.066406.148437c.136719 0 .269532.003906.40625.003906h303.363282c.136718 0 .269531-.003906.40625-.003906h.148437.066407c13.890624-.046875 25.425781-1.578125 36.238281-4.820312 9.605469-2.878906 19.164062-7.160156 31.96875-14.308594 2.429687-1.347656 5.246093-1.671875 7.917969-.90625 2.683593.765625 4.90625 2.527344 6.261718 4.964844 2.796875 5.03125.980469 11.398437-4.066406 14.203125zm0 0"
     id="path2" />
  <path
     d="m159.214844 22.484375c.207031 0 .417968-.003906.632812-.019531 5.511719-.34375 9.699219-5.089844 9.355469-10.601563-.34375-5.515625-5.097656-9.695312-10.605469-9.359375h-.007812c-5.511719.347656-9.695313 5.09375-9.351563 10.605469.332031 5.300781 4.738281 9.375 9.976563 9.375zm0 0"
     id="path4" />
  <path
     d="m268.238281 379.003906c5.519531 0 10-4.476562 10-10 0-5.523437-4.480469-10-10-10h-.011719c-5.519531 0-9.996093 4.476563-9.996093 10 0 5.523438 4.484375 10 10.007812 10zm0 0"
     id="path6" />
  <path
     d="m308.234375 379.003906h60c5.519531 0 10-4.476562 10-10 0-5.523437-4.480469-10-10-10h-60c-5.523437 0-10 4.476563-10 10 0 5.523438 4.476563 10 10 10zm0 0"
     id="path8" />
</svg>
