<?xml version="1.0" encoding="UTF-8" standalone="no"?>
<!-- Generator: Adobe Illustrator 19.0.0, SVG Export Plug-In . SVG Version: 6.00 Build 0)  -->

<svg
   xmlns:dc="http://purl.org/dc/elements/1.1/"
   xmlns:cc="http://creativecommons.org/ns#"
   xmlns:rdf="http://www.w3.org/1999/02/22-rdf-syntax-ns#"
   xmlns:svg="http://www.w3.org/2000/svg"
   xmlns="http://www.w3.org/2000/svg"
   xmlns:sodipodi="http://sodipodi.sourceforge.net/DTD/sodipodi-0.dtd"
   xmlns:inkscape="http://www.inkscape.org/namespaces/inkscape"
   version="1.1"
   id="Capa_1"
   x="0px"
   y="0px"
   viewBox="0 0 512 512"
   style="enable-background:new 0 0 512 512;"
   xml:space="preserve"
   sodipodi:docname="penguin.svg"
   inkscape:export-filename="C:\Apps\Github\TTISD\TTISD-Project\Design\Pionnen\penguin.png"
   inkscape:export-xdpi="187.5"
   inkscape:export-ydpi="187.5"
   inkscape:version="0.92.3 (2405546, 2018-03-11)"><metadata
   id="metadata59"><rdf:RDF><cc:Work
       rdf:about=""><dc:format>image/svg+xml</dc:format><dc:type
         rdf:resource="http://purl.org/dc/dcmitype/StillImage" /></cc:Work></rdf:RDF></metadata><defs
   id="defs57" /><sodipodi:namedview
   pagecolor="#ffffff"
   bordercolor="#666666"
   borderopacity="1"
   objecttolerance="10"
   gridtolerance="10"
   guidetolerance="10"
   inkscape:pageopacity="0"
   inkscape:pageshadow="2"
   inkscape:window-width="1920"
   inkscape:window-height="1001"
   id="namedview55"
   showgrid="false"
   inkscape:zoom="0.4609375"
   inkscape:cx="288.38732"
   inkscape:cy="246.55058"
   inkscape:window-x="-9"
   inkscape:window-y="-9"
   inkscape:window-maximized="1"
   inkscape:current-layer="Capa_1" />
<g
   id="g22">
	<g
   id="g20">
		<g
   id="g18">
			<path
   d="M511.503,488.677c-20.026-52.357-33.696-102.846-40.63-150.067c-0.602-4.098-4.407-6.932-8.51-6.331     c-4.098,0.602-6.932,4.412-6.331,8.51c7.093,48.306,21.043,99.864,41.461,153.246c1.143,2.987,3.988,4.823,7.006,4.823     c0.891,0,1.796-0.16,2.678-0.497C511.046,496.882,512.983,492.546,511.503,488.677z"
   id="path2" />
			<path
   d="M389.124,423.493c-7.513-11.925-16.696-22.892-27.387-32.564c-0.905-0.818-1.818-1.625-2.739-2.42     c-28.556-24.652-64.985-38.186-102.999-38.186c-39.24,0-76.791,14.421-105.736,40.606c-5.396,4.882-10.409,10.093-15.016,15.591     c-19.966,23.824-32.324,53.03-35.309,84.119c-0.396,4.123,2.626,7.787,6.749,8.183c0.244,0.023,0.486,0.035,0.726,0.035     c3.819,0,7.084-2.904,7.457-6.784c0.65-6.774,1.773-13.392,3.334-19.824c15.092-62.173,71.168-106.924,137.795-106.924     c73.515,0,134.193,54.491,141.142,126.749c0.025,0.258,0.062,0.511,0.112,0.76c0.745,3.728,4.209,6.361,8.071,5.988     c4.123-0.396,7.144-4.06,6.748-8.183C409.76,466.589,401.836,443.668,389.124,423.493z"
   id="path4" />
			<path
   d="M459.793,308.937c4.132-0.289,7.248-3.872,6.96-8.004c-0.7-10.032-1.055-19.961-1.055-29.511     c0-84.373-13.486-143.188-42.442-185.091c-34.032-49.25-88.742-73.19-167.258-73.19S122.774,37.082,88.742,86.332     c-28.955,41.903-42.442,100.716-42.442,185.091c0,80.589-24.909,162.626-45.804,217.254c-1.48,3.869,0.457,8.205,4.326,9.685     c0.881,0.337,1.787,0.497,2.678,0.497c3.018,0,5.864-1.835,7.006-4.822c21.348-55.81,46.794-139.734,46.794-222.613     c0-80.069,13.013-137.824,39.782-176.564c31.022-44.895,81.695-66.717,154.917-66.717s123.896,21.822,154.918,66.716     c26.77,38.74,39.782,96.494,39.782,176.564c0,9.897,0.367,20.177,1.091,30.555C452.078,306.109,455.657,309.215,459.793,308.937z     "
   id="path6" />
			<path
   d="M201.935,151.462c0-24.381-19.836-44.217-44.217-44.217s-44.217,19.835-44.217,44.217     c0,24.382,19.835,44.217,44.217,44.217C182.101,195.679,201.935,175.843,201.935,151.462z M128.502,151.462     c0-16.11,13.106-29.217,29.217-29.217c16.111,0,29.217,13.106,29.217,29.217c0,16.111-13.107,29.217-29.217,29.217     S128.502,167.572,128.502,151.462z"
   id="path8" />
			<circle
   cx="157.719"
   cy="151.458"
   r="13.653"
   id="circle10" />
			<path
   d="M398.498,151.462c0-24.381-19.835-44.217-44.217-44.217s-44.217,19.835-44.217,44.217     c0,24.382,19.836,44.217,44.217,44.217C378.662,195.679,398.498,175.843,398.498,151.462z M325.064,151.462     c0-16.11,13.107-29.217,29.217-29.217c16.11,0,29.217,13.106,29.217,29.217c0,16.111-13.106,29.217-29.217,29.217     S325.064,167.572,325.064,151.462z"
   id="path12" />
			<circle
   cx="354.277"
   cy="151.458"
   r="13.653"
   id="circle14" />
			<path
   d="M107.859,224.414c-3.325,6.71-2.405,14.801,2.402,21.115c3.811,5.006,15.852,16.034,45.267,10.358     c2.473-0.477,4.968-0.958,7.474-1.437c2.871,2.342,5.517,4.548,8.091,6.695c23.217,19.369,34.871,29.091,84.906,29.091     s61.69-9.722,84.906-29.091c2.574-2.147,5.221-4.354,8.091-6.696c2.507,0.479,5.001,0.96,7.474,1.437     c5.769,1.113,10.865,1.584,15.367,1.583c18.452-0.001,26.837-7.918,29.9-11.942c4.807-6.314,5.727-14.404,2.402-21.115     c-3.65-7.366-11.58-11.764-21.213-11.764c-45.948,0-66.481-19.518-84.597-36.739c-12.629-12.004-24.558-23.343-42.331-23.343     c-17.773,0-29.702,11.339-42.331,23.343c-18.116,17.221-38.649,36.739-84.597,36.739     C119.439,212.65,111.509,217.048,107.859,224.414z M256,275.235c-43.518,0-52.534-6.64-73.695-24.272     c3.74-0.631,7.421-1.214,11.022-1.732c0.197-0.028,0.395-0.057,0.593-0.084c0.434-0.062,0.865-0.121,1.297-0.181     c23.064-3.134,43.638-3.432,53.841,4.823c0.073,0.06,0.149,0.118,0.222,0.179c0.479,0.399,0.938,0.814,1.369,1.253     c0.882,0.898,1.966,1.551,3.146,1.914c0.708,0.218,1.451,0.332,2.206,0.332c0.252,0,0.502-0.013,0.75-0.038     c1.737-0.175,3.368-0.952,4.602-2.208c0.43-0.438,0.889-0.853,1.367-1.251c0.074-0.062,0.151-0.121,0.226-0.182     c10.203-8.253,30.77-7.956,53.828-4.824c0.449,0.062,0.897,0.124,1.348,0.188c0.175,0.025,0.351,0.05,0.526,0.075     c3.61,0.519,7.299,1.104,11.048,1.736C308.534,268.596,299.518,275.235,256,275.235z M121.3,231.074     c1.063-2.144,3.968-3.423,7.773-3.423c51.94,0,76.788-23.62,94.931-40.867c11.735-11.155,20.215-19.215,31.996-19.215     s20.261,8.06,31.996,19.215c18.144,17.247,42.992,40.867,94.931,40.867c3.805,0,6.71,1.28,7.773,3.423     c0.799,1.614,0.473,3.57-0.896,5.369c-3.402,4.468-13.198,8.055-30.489,4.716c-3.72-0.718-7.351-1.409-10.906-2.072     c-0.021-0.004-0.041-0.012-0.062-0.016c-19.467-3.645-37.711-6.683-53.538-7.125c-1.491-0.047-2.963-0.08-4.398-0.08     c-14.217,0-25.7,2.377-34.411,8.357c-9.591-6.585-22.553-8.793-38.816-8.278c-0.272,0.008-0.548,0.019-0.822,0.029     c-0.518,0.019-1.033,0.036-1.558,0.06c-15.265,0.661-32.655,3.572-51.152,7.035c-0.025,0.005-0.048,0.014-0.072,0.019     c-3.553,0.663-7.178,1.352-10.895,2.069c-17.293,3.337-27.088-0.248-30.49-4.716C120.827,234.644,120.5,232.687,121.3,231.074z"
   id="path16" />
		</g>
	</g>
</g>
<g
   id="g24">
</g>
<g
   id="g26">
</g>
<g
   id="g28">
</g>
<g
   id="g30">
</g>
<g
   id="g32">
</g>
<g
   id="g34">
</g>
<g
   id="g36">
</g>
<g
   id="g38">
</g>
<g
   id="g40">
</g>
<g
   id="g42">
</g>
<g
   id="g44">
</g>
<g
   id="g46">
</g>
<g
   id="g48">
</g>
<g
   id="g50">
</g>
<g
   id="g52">
</g>
</svg>