<svg height="511pt" viewBox="0 -26 511.99962 511" width="511pt" xmlns="http://www.w3.org/2000/svg"><path d="m509.679688 268.316406c-2.703126-21.308594-6.21875-43.921875-13.613282-64.960937-2.550781-7.257813-8.609375-12.375-16.203125-13.683594-7.578125-1.308594-15.292969 1.601563-20.128906 7.59375-6.433594 7.960937-13.332031 14.699219-20.507813 20.023437-4.957031 3.675782-10.28125 6.617188-16.277343 8.988282-3.851563 1.523437-5.742188 5.886718-4.214844 9.742187 1.523437 3.851563 5.882813 5.742188 9.738281 4.214844 7.128906-2.820313 13.753906-6.484375 19.695313-10.890625 8.195312-6.078125 16.015625-13.695312 23.246093-22.648438 1.441407-1.785156 3.644532-2.617187 5.898438-2.230468 1.035156.179687 3.550781.914062 4.589844 3.867187 6.929687 19.71875 10.289062 41.390625 12.886718 61.871094 2.6875 21.207031 8.644532 93.847656-27.574218 138.175781-19.347656 23.683594-54.140625 35.78125-103.410156 35.957032-7.6875.027343-15.433594.066406-23.207032.105468-18.765625.097656-38.171875.203125-56.964844.117188-.011718 0-.023437 0-.035156 0-4.128906 0-7.484375 3.335937-7.503906 7.472656-.019531 4.144531 3.328125 7.519531 7.472656 7.539062 4.9375.019532 9.917969.03125 14.917969.03125 14.082031 0 28.3125-.074218 42.191406-.148437 7.765625-.039063 15.503907-.082031 23.179688-.109375 53.976562-.191406 92.660156-14.144531 114.984375-41.46875 15.027344-18.390625 25.105468-42.6875 29.957031-72.210938 4.988281-30.328124 3.230469-58.804687.882813-77.347656zm0 0"/><path d="m351.222656 272.570312c-9.152344-6.265624-18.609375-12.742187-28.449218-17.246093-28.648438-13.109375-63.714844-6.816407-87.265626 15.65625-20.570312 19.628906-29 50.757812-20.980468 77.464843 2.792968 9.289063 7.382812 17.625 13.648437 24.777344 16.957031 19.351563 39.445313 29.410156 65.488281 29.410156 3.230469 0 6.519532-.152343 9.855469-.464843 50.9375-4.753907 99.957031-43.792969 120.21875-78.109375 2.878907-4.871094 3.210938-10.867188.894531-16.035156-2.320312-5.175782-7.027343-8.921876-12.585937-10.015626-15.386719-3.035156-28.679687-5.652343-42.25-13.414062-6.148437-3.515625-12.464844-7.84375-18.574219-12.023438zm59.710938 41.59375c.199218.4375.441406 1.3125-.117188 2.257813-9.753906 16.519531-26.359375 33.421875-45.558594 46.371094-20.5625 13.871093-42.980468 22.546875-63.128906 24.429687-25.585937 2.382813-46.679687-5.652344-62.664062-23.894531-4.835938-5.523437-8.390625-11.984375-10.558594-19.203125-6.4375-21.429688.382812-46.460938 16.964844-62.285156 19.148437-18.273438 47.542968-23.441406 70.65625-12.867188 8.667968 3.96875 17.191406 9.804688 26.210937 15.980469 6.359375 4.355469 12.929688 8.855469 19.609375 12.671875 15.703125 8.980469 30.808594 11.957031 46.796875 15.109375 1.097657.214844 1.59375.988281 1.789063 1.429687zm0 0"/><path d="m399.574219 239.828125c-.332031-4.132813-3.949219-7.203125-8.082031-6.878906-6.160157.496093-12.765626.714843-21.417969.714843-.011719 0-.023438 0-.03125 0-3.230469 0-6.105469-1.679687-7.695313-4.496093-.753906-1.339844-2.257812-4.886719.125-8.832031 13.414063-22.210938 20.601563-47.726563 20.789063-73.785157.570312-79.425781-63.554688-144.9375-142.9375-146.039062-39.132813-.511719-76.023438 14.28125-103.863281 41.742187-23.832032 23.503906-38.488282 53.746094-42.226563 86.488282-13.476563 5.402343-46.402344 17.234374-71.613281 15.046874-7.25-.632812-14.175782 2.488282-18.519532 8.339844-4.3125 5.808594-5.292968 13.273438-2.617187 19.96875 8.023437 20.078125 20.855469 35.320313 37.105469 44.070313 11.25 6.058593 24.042968 9.089843 38.28125 9.089843 11.335937 0 23.589844-1.933593 36.710937-5.777343 3.464844 5.847656 7.339844 11.46875 11.625 16.796875 2.867188 3.566406 2.558594 8.660156-.726562 11.84375-22.84375 22.15625-34.753907 56.238281-32.675781 93.507812 2.136718 38.375 18.925781 73.296875 44.910156 93.417969 17.828125 13.808594 40.910156 21.230469 70.5625 22.6875 13.097656.640625 26.664062 1.105469 41.472656 1.410156h.15625c4.074219 0 7.417969-3.261719 7.503906-7.351562.082032-4.144531-3.207031-7.570313-7.351562-7.65625-14.664063-.304688-28.089844-.761719-41.046875-1.398438-26.476563-1.300781-46.792969-7.699219-62.109375-19.5625-22.59375-17.492187-37.214844-48.292969-39.113282-82.382812-1.832031-32.921875 8.425782-62.769531 28.140626-81.894531 8.878906-8.613282 9.726562-22.382813 1.972656-32.03125-18.722656-23.289063-28.621094-51.425782-28.621094-81.375 0-35.058594 13.75-67.929688 38.71875-92.550782 24.957031-24.617187 58.066406-37.917968 93.113281-37.421875 71.164063.984375 128.644531 59.71875 128.136719 130.921875-.167969 23.363282-6.609375 46.230469-18.628906 66.132813-4.492188 7.4375-4.621094 16.398437-.347656 23.96875 4.285156 7.597656 12.046874 12.128906 20.765624 12.128906h.035157c9.066406 0 16.042969-.234375 22.617187-.761719 4.136719-.332031 7.214844-3.953125 6.882813-8.082031zm-384.148438-73.300781c-1.046875-2.621094.160157-4.683594.726563-5.449219.546875-.734375 2.042968-2.359375 4.621094-2.359375.175781 0 .359374.007812.546874.023438 24.910157 2.164062 54.976563-7.179688 71.957032-13.511719 0 .085937-.003906.175781-.003906.265625 0 20.914062 4.582031 41.546875 13.199218 60.382812-33.792968 9.117188-72.558594 6.914063-91.046875-39.351562zm0 0"/><path d="m173.785156 99.21875v21.058594c0 4.144531 3.359375 7.507812 7.507813 7.507812 4.144531 0 7.503906-3.359375 7.503906-7.507812v-21.058594c0-4.144531-3.359375-7.507812-7.503906-7.507812-4.148438 0-7.507813 3.363281-7.507813 7.507812zm0 0"/></svg>